<svg viewBox="0 0 512 512" xmlns="http://www.w3.org/2000/svg" fill-rule="evenodd" clip-rule="evenodd" stroke-linejoin="round" stroke-miterlimit="2"><path d="M458.531 12.17c-4.142-4.135-9.05-6.169-14.658-6.169H68.125c-5.672 0-10.516 2.034-14.658 6.17-4.143 4.133-6.182 9.03-6.182 14.626v249.999c0 18.635 3.633 37.14 10.897 55.52 7.266 18.317 16.317 34.596 27.087 48.842 10.768 14.183 23.578 28.048 38.49 41.53 14.914 13.48 28.68 24.612 41.235 33.515 12.619 8.904 25.747 17.298 39.449 25.248 13.702 7.95 23.452 13.291 29.188 16.09 5.736 2.797 10.387 5.024 13.828 6.485 2.614 1.273 5.417 1.973 8.477 1.973 3.06 0 5.862-.636 8.477-1.973 3.504-1.525 8.092-3.688 13.892-6.486 5.736-2.798 15.486-8.204 29.188-16.09 13.702-7.949 26.83-16.343 39.45-25.247 12.616-8.903 26.382-20.096 41.295-33.516 14.913-13.481 27.722-27.284 38.493-41.53 10.77-14.245 19.757-30.463 27.085-48.84 7.266-18.317 10.896-36.824 10.896-55.521V26.86c.065-5.66-2.039-10.557-6.18-14.69zM410.098 279.15c0 90.5-154.098 168.467-154.098 168.467V59.55h154.098v219.6z" fill="#175ddc" fill-rule="nonzero"/></svg>