<svg xmlns="http://www.w3.org/2000/svg" viewBox="0 0 24 24" fill="none">
  <path d="M1.393 17.893c-.326.527-.6 1.044-.83 1.404a.632.632 0 0 0 .207.867l4.72 2.905a.641.641 0 0 0 .876-.194c.2-.326.474-.82.795-1.404 1.477-2.681 2.96-2.373 5.63-1.093l4.372 2.072a.643.643 0 0 0 .854-.34l2.092-4.966a.636.636 0 0 0-.327-.822c-1.083-.507-3.248-1.537-5.13-2.422-5.217-2.459-9.386-2.303-13.259 3.993Z" fill="#1868DB"/>
  <path d="M22.607 6.107c.326-.527.6-1.044.83-1.404a.632.632 0 0 0-.207-.867L18.51.931a.641.641 0 0 0-.876.194c-.2.326-.474.82-.795 1.404-1.477 2.681-2.96 2.373-5.63 1.093L6.837 1.55a.643.643 0 0 0-.854.34L3.89 6.856a.636.636 0 0 0 .327.822c1.083.507 3.248 1.537 5.13 2.422 5.217 2.459 9.386 2.303 13.259-3.993Z" fill="#1868DB"/>
</svg>
