<svg role="img" viewBox="0 0 24 24" xmlns="http://www.w3.org/2000/svg"><title>Fireflies.ai</title><path d="M14.5 1.2c.26 0 .49.17.57.42l1.06 3.36a3.6 3.6 0 0 0 2.33 2.33l3.36 1.06a.6.6 0 0 1 0 1.14l-3.36 1.06a3.6 3.6 0 0 0-2.33 2.33l-1.06 3.36a.6.6 0 0 1-1.14 0l-1.06-3.36a3.6 3.6 0 0 0-2.33-2.33L7.18 9.51a.6.6 0 0 1 0-1.14l3.36-1.06a3.6 3.6 0 0 0 2.33-2.33l1.06-3.36a.6.6 0 0 1 .57-.42zM5.6 14.4c.18 0 .34.12.4.29l.5 1.6c.16.5.55.89 1.05 1.05l1.6.5a.42.42 0 0 1 0 .8l-1.6.5c-.5.16-.89.55-1.05 1.05l-.5 1.6a.42.42 0 0 1-.8 0l-.5-1.6a1.66 1.66 0 0 0-1.05-1.05l-1.6-.5a.42.42 0 0 1 0-.8l1.6-.5c.5-.16.89-.55 1.05-1.05l.5-1.6a.42.42 0 0 1 .4-.29z"/></svg>
