<svg xmlns="http://www.w3.org/2000/svg" viewBox="0 0 56 56"><defs><linearGradient id="ff-g1" gradientUnits="userSpaceOnUse" x1="144.6644" y1="-133.7781" x2="54.3811" y2="-38.9195" gradientTransform="matrix(0.8571 0 0 -0.8571 -79.2389 -68.1736)"><stop offset="0" stop-color="#E82A73"/><stop offset="0.113" stop-color="#DE2D7A"/><stop offset="0.3" stop-color="#C5388F"/><stop offset="0.54" stop-color="#9B4AB0"/><stop offset="0.818" stop-color="#6262DE"/><stop offset="0.994" stop-color="#3B73FF"/></linearGradient><linearGradient id="ff-g2" gradientUnits="userSpaceOnUse" x1="145.1664" y1="-133.3084" x2="54.8831" y2="-38.4499" gradientTransform="matrix(0.8571 0 0 -0.8571 -79.2389 -68.1736)"><stop offset="0" stop-color="#FF3C82"/><stop offset="0.103" stop-color="#F53E88"/><stop offset="0.274" stop-color="#DC4598"/><stop offset="0.492" stop-color="#B251B2"/><stop offset="0.745" stop-color="#7961D7"/><stop offset="0.994" stop-color="#3B73FF"/></linearGradient><linearGradient id="ff-g3" gradientUnits="userSpaceOnUse" x1="144.7625" y1="-123.2011" x2="114.171" y2="-12.3403" gradientTransform="matrix(0.8571 0 0 -0.8571 -79.2389 -68.1736)"><stop offset="0" stop-color="#E82A73"/><stop offset="0.113" stop-color="#DE2D7A"/><stop offset="0.3" stop-color="#C5388F"/><stop offset="0.54" stop-color="#9B4AB0"/><stop offset="0.818" stop-color="#6262DE"/><stop offset="0.994" stop-color="#3B73FF"/></linearGradient><linearGradient id="ff-g4" gradientUnits="userSpaceOnUse" x1="134.8237" y1="-132.3271" x2="25.3098" y2="-98.9636" gradientTransform="matrix(0.8571 0 0 -0.8571 -79.2389 -68.1736)"><stop offset="0" stop-color="#E82A73"/><stop offset="0.113" stop-color="#DE2D7A"/><stop offset="0.3" stop-color="#C5388F"/><stop offset="0.54" stop-color="#9B4AB0"/><stop offset="0.818" stop-color="#6262DE"/><stop offset="0.994" stop-color="#3B73FF"/></linearGradient><linearGradient id="ff-g5" gradientUnits="userSpaceOnUse" x1="82.2078" y1="-52.7908" x2="112.8836" y2="-123.0805" gradientTransform="matrix(0.8571 0 0 -0.8571 -79.2389 -68.1736)"><stop offset="0" stop-color="#E82A73"/><stop offset="0.114" stop-color="#DE286E"/><stop offset="0.303" stop-color="#C52361"/><stop offset="0.544" stop-color="#9B1A4D"/><stop offset="0.825" stop-color="#620F30"/><stop offset="0.994" stop-color="#3D081E"/></linearGradient><linearGradient id="ff-g6" gradientUnits="userSpaceOnUse" x1="107.6542" y1="-78.5296" x2="138.33" y2="-148.8194" gradientTransform="matrix(0.8571 0 0 -0.8571 -79.2389 -68.1736)"><stop offset="0" stop-color="#E82A73"/><stop offset="0.114" stop-color="#DE286E"/><stop offset="0.303" stop-color="#C52361"/><stop offset="0.544" stop-color="#9B1A4D"/><stop offset="0.825" stop-color="#620F30"/><stop offset="0.994" stop-color="#3D081E"/></linearGradient><linearGradient id="ff-g7" gradientUnits="userSpaceOnUse" x1="70.8311" y1="-99.3209" x2="140.3046" y2="-145.474" gradientTransform="matrix(0.8571 0 0 -0.8571 -79.2389 -68.1736)"><stop offset="0" stop-color="#E82A73"/><stop offset="0.114" stop-color="#DE286E"/><stop offset="0.303" stop-color="#C52361"/><stop offset="0.544" stop-color="#9B1A4D"/><stop offset="0.825" stop-color="#620F30"/><stop offset="0.994" stop-color="#3D081E"/></linearGradient><linearGradient id="ff-g8" gradientUnits="userSpaceOnUse" x1="297.6904" y1="-1360.8851" x2="309.5946" y2="-1454.8754" gradientTransform="matrix(0.8571 0 0 -0.8571 -79.2389 -68.1736)"><stop offset="0" stop-color="#E82A73"/><stop offset="0.114" stop-color="#DE286E"/><stop offset="0.303" stop-color="#C52361"/><stop offset="0.544" stop-color="#9B1A4D"/><stop offset="0.825" stop-color="#620F30"/><stop offset="0.994" stop-color="#3D081E"/></linearGradient></defs><path fill="url(#ff-g1)" d="M18.4,0H0v18.3h18.4V0z"/><path fill="url(#ff-g2)" d="M40.2,22.1H21.8v18.3h18.4V22.1z"/><path fill="url(#ff-g3)" d="M40.2,0H21.8v18.3H56v-2.6c0-4.2-1.7-8.1-4.6-11.1C48.4,1.7,44.4,0,40.2,0L40.2,0z"/><path fill="url(#ff-g4)" d="M0,22.1v18.3c0,4.2,1.7,8.1,4.6,11.1c3,2.9,7,4.6,11.2,4.6h2.6V22.1H0z"/><path fill="url(#ff-g5)" opacity=".18" d="M0,0l18.4,18.3H0V0z"/><path fill="url(#ff-g6)" opacity=".18" d="M21.8,22.1l18.4,18.3H21.8V22.1z"/><path fill="url(#ff-g7)" opacity=".18" d="M0,40.3c0,4.2,1.7,8.1,4.6,11.1c3,2.9,7,4.6,11.2,4.6h2.6V22.1L0,40.3z"/><path fill="url(#ff-g8)" opacity=".18" d="M40.2,0c4.2,0,8.2,1.7,11.2,4.6c3,2.9,4.6,6.9,4.6,11.1v2.6H21.8L40.2,0z"/></svg>
