<svg xmlns="http://www.w3.org/2000/svg" viewBox="0 0 512 512"><path fill="#41A5EE" d="M490.17,19.2H140.9c-12.05,0-21.83,9.72-21.83,21.7v96.7l202.42,59.2L512,137.6V40.9C512,28.91,502.23,19.2,490.17,19.2z"/><path fill="#2B7CD3" d="M512,137.6H119.07V256l202.42,35.52L512,256V137.6z"/><path fill="#185ABD" d="M119.07,256v118.4l190.51,23.68L512,374.4V256H119.07z"/><path fill="#103F91" d="M140.9,492.8h349.28c12.05,0,21.83-9.72,21.83-21.7v-96.7H119.07v96.7C119.07,483.09,128.84,492.8,140.9,492.8z"/><path opacity="0.1" d="M263.94,113.92H119.07v296h144.87c12.04-0.04,21.79-9.73,21.83-21.7v-252.6C285.73,123.65,275.98,113.96,263.94,113.92z"/><path opacity="0.2" d="M252.04,125.76H119.07v296h132.97c12.04-0.04,21.79-9.73,21.83-21.7v-252.6C273.82,135.49,264.07,125.8,252.04,125.76z"/><path opacity="0.2" d="M252.04,125.76H119.07v272.32h132.97c12.04-0.04,21.79-9.73,21.83-21.7V147.46C273.82,135.49,264.07,125.8,252.04,125.76z"/><path opacity="0.2" d="M240.13,125.76H119.07v272.32h121.06c12.04-0.04,21.79-9.73,21.83-21.7V147.46C261.91,135.49,252.17,125.8,240.13,125.76z"/><defs><linearGradient id="wg" x1="45.82" y1="108.51" x2="216.14" y2="403.49" gradientUnits="userSpaceOnUse"><stop offset="0" stop-color="#2368C4"/><stop offset=".5" stop-color="#1A5DBE"/><stop offset="1" stop-color="#1146AC"/></linearGradient></defs><path fill="url(#wg)" d="M21.83,125.76h218.3c12.05,0,21.83,9.72,21.83,21.7v217.08c0,11.99-9.77,21.7-21.83,21.7H21.83C9.77,386.24,0,376.52,0,364.54V147.46C0,135.48,9.77,125.76,21.83,125.76z"/><path fill="#fff" d="M89.56,292.21c0.43,3.35,0.71,6.26,0.85,8.76h0.5c0.19-2.37,0.59-5.22,1.19-8.56c0.6-3.34,1.15-6.16,1.63-8.47l22.96-98.49h29.68l23.81,97.01c1.38,6.03,2.37,12.15,2.96,18.3h0.39c0.44-5.97,1.27-11.9,2.48-17.76l18.99-97.6h27.02l-33.36,141.13H157.1l-22.62-93.47c-0.65-2.69-1.4-6.2-2.23-10.53s-1.33-7.48-1.54-9.47h-0.39c-0.26,2.3-0.77,5.71-1.54,10.23c-0.76,4.52-1.37,7.87-1.83,10.04l-21.27,93.17h-32.1L40.04,185.46h27.5l20.68,98.69C88.7,286.17,89.14,288.87,89.56,292.21z"/></svg>
