<svg viewBox="0 0 200 258" fill="none" xmlns="http://www.w3.org/2000/svg">
<path d="M123.0089 28.7559C112.1328 15.9086 102.7673 2.86053 100.8539 0.150554C100.6525 -0.0501848 100.3503 -0.0501848 100.1489 0.150554C98.2355 2.86053 88.8699 15.9086 77.9938 28.7559C-15.3594 147.292 92.6968 227.287 92.6968 227.287L93.6031 227.889C94.4087 240.235 96.4228 258 96.4228 258H100.451H104.4792C104.4792 258 106.4934 240.335 107.299 227.889L108.2052 227.187C108.306 227.187 216.362 147.292 123.0089 28.7559ZM100.451 225.48C100.451 225.48 95.6172 221.365 94.3081 219.257V219.057L100.1489 89.9813C100.1489 89.5798 100.7532 89.5798 100.7532 89.9813L106.594 219.057V219.257C105.2848 221.365 100.451 225.48 100.451 225.48Z" fill="#00684A"/>
</svg>
