<svg xmlns="http://www.w3.org/2000/svg" viewBox="0 0 256 549">
  <path fill="#00ED64" d="M178.87 148.256C152.656 109.765 133.375 68.91 128.55 17.5c-.394-4.16-.71-8.33-.935-12.51-.056-1.006-.787-3.037-1.18-3.037-.394 0-1.124 2.031-1.18 3.037a194.6 194.6 0 0 1-.935 12.51c-4.825 51.41-24.106 92.265-50.32 130.756C48.775 187.948 22 214.46 9.487 251.612c-5.7 16.97-7.966 34.624-7.53 52.56.956 39.818 14.063 74.737 37.29 105.717 9.28 12.38 20.144 23.286 31.924 33.166 2.474 2.068 4.977 4.22 7.31 6.485 6.316 6.09 10.41 13.3 11.703 22.038.9 6.034 1.518 12.117 2.277 18.175.21 1.687.703 3.347 1.068 5.02.09.394.337 1.012.618 1.068.478.084.787-.506.9-1.012 1.18-5.329 2.724-10.627 3.51-16.012 2.163-14.875 2.95-29.835 6.288-44.514 3.31-14.51 10.45-26.768 21.858-36.303 9.983-8.303 19.91-16.7 29.301-25.694 38.09-36.612 58.515-81.462 62.002-134.23 1.096-16.587.337-33.033-2.893-49.31-5.948-29.92-19.757-55.715-37.94-79.52z"/>
  <path fill="#00684A" d="M128.578 468.748c-.478-3.713-.9-7.116-1.405-10.514-.675-4.44-2.921-7.9-6.54-10.402-3.04-2.09-6.15-4.107-9.14-6.316-23.17-17.16-40.95-38.934-52.315-65.534-5.47-12.817-9.056-26.093-10.77-39.96-.506-4.077-.787-8.19-1.124-12.286-.028-.394-.17-1.04-.338-1.068-.478-.056-.703.534-.787 1.012-1.124 7.566-1.968 15.16-2.106 22.838-.478 27.21 5.864 52.96 18.13 77.11 8.614 16.896 19.757 31.952 33.005 45.33 3.994 4.05 8.134 7.9 12.13 11.928 2.894 2.95 4.694 6.484 4.78 10.71.056 3.31.478 6.625.703 9.938.056.9.394 1.518 1.208 1.518.815 0 1.153-.618 1.208-1.518.197-3.03.45-6.063.59-9.097.367-7.845.87-15.64-.23-23.69z"/>
</svg>
