<svg xmlns="http://www.w3.org/2000/svg" viewBox="0 0 27.687 27.637"><path fill="#5B0EFF" d="M23.6317 4.04813C21.0176 1.43673 17.5407 0 13.8416 0C10.1425 0 6.66563 1.43673 4.05335 4.04631C1.43923 6.65588 0 10.1249 0 13.8176C0 17.5102 1.43923 20.9792 4.05335 23.5888C6.66746 26.1984 10.1444 27.637 13.8434 27.637C17.5424 27.637 21.0194 26.2002 23.6336 23.5906C26.2477 20.9811 27.6869 17.512 27.6869 13.8194C27.6869 10.1268 26.2477 6.65771 23.6336 4.04813H23.6317ZM24.7956 13.8194C24.7956 19.2951 20.7128 23.9406 15.2863 24.6572V2.97792C20.7128 3.69445 24.7956 8.34185 24.7956 13.8176V13.8194ZM5.34389 6.9271C7.12273 4.74268 9.61936 3.34443 12.3987 2.97792V6.9271H5.34389ZM12.3987 9.81156V12.39H2.9831C3.09876 11.5067 3.32455 10.6398 3.65131 9.81156H12.3987ZM12.3987 15.2726V17.851H3.66233C3.3319 17.0227 3.10426 16.1559 2.98677 15.2726H12.3987ZM12.3987 20.7355V24.6572C9.63404 24.2925 7.14477 22.9034 5.36775 20.7355H12.3987Z"/></svg>
