<svg xmlns="http://www.w3.org/2000/svg" viewBox="0 0 960 460" fill="none">
  <style>
    text { font-family: -apple-system, BlinkMacSystemFont, 'Segoe UI', Helvetica, Arial, sans-serif; }
  </style>
  <defs>
    <marker id="arrowhead" viewBox="0 0 10 7" refX="10" refY="3.5" markerWidth="8" markerHeight="7" orient="auto-start-reverse">
      <polygon points="0 0, 10 3.5, 0 7" fill="#19BA5D" fill-opacity="0.6"/>
    </marker>
    <filter id="shadow">
      <feDropShadow dx="0" dy="2" stdDeviation="4" flood-color="#000" flood-opacity="0.4"/>
    </filter>
  </defs>

  <!-- Background -->
  <rect width="960" height="460" rx="12" fill="#0d1117"/>

  <!-- ===== ROW 1: AI AGENTS ===== -->
  <text x="480" y="24" text-anchor="middle" fill="#8b949e" font-size="11" font-weight="500" letter-spacing="0.5">AI Agents</text>

  <rect x="95" y="38" width="170" height="50" rx="10" fill="#161b22" stroke="#30363d" stroke-width="1"/>
  <text x="180" y="68" text-anchor="middle" fill="#e6edf3" font-size="13" font-weight="500">OpenClaw</text>

  <rect x="295" y="38" width="170" height="50" rx="10" fill="#161b22" stroke="#30363d" stroke-width="1"/>
  <text x="380" y="68" text-anchor="middle" fill="#e6edf3" font-size="13" font-weight="500">NanoClaw</text>

  <rect x="495" y="38" width="170" height="50" rx="10" fill="#161b22" stroke="#30363d" stroke-width="1"/>
  <text x="580" y="68" text-anchor="middle" fill="#e6edf3" font-size="13" font-weight="500">IronClaw</text>

  <rect x="695" y="38" width="170" height="50" rx="10" fill="#161b22" stroke="#30363d" stroke-width="1"/>
  <text x="780" y="68" text-anchor="middle" fill="#e6edf3" font-size="13" font-weight="500">Any Agent</text>

  <!-- Arrows: agents → gateway -->
  <line x1="180" y1="88" x2="180" y2="148" stroke="#19BA5D" stroke-width="1.5" stroke-opacity="0.4" marker-end="url(#arrowhead)"/>
  <line x1="380" y1="88" x2="380" y2="148" stroke="#19BA5D" stroke-width="1.5" stroke-opacity="0.4" marker-end="url(#arrowhead)"/>
  <line x1="580" y1="88" x2="580" y2="148" stroke="#19BA5D" stroke-width="1.5" stroke-opacity="0.4" marker-end="url(#arrowhead)"/>
  <line x1="780" y1="88" x2="780" y2="148" stroke="#19BA5D" stroke-width="1.5" stroke-opacity="0.4" marker-end="url(#arrowhead)"/>

  <!-- ===== ROW 2: ONECLI GATEWAY ===== -->
  <rect x="70" y="152" width="820" height="142" rx="14" fill="none" stroke="#19BA5D" stroke-width="1.5" stroke-opacity="0.15"/>
  <text x="480" y="178" text-anchor="middle" fill="#19BA5D" font-size="11" font-weight="600" letter-spacing="1.5">ONECLI GATEWAY</text>

  <!-- Web Dashboard -->
  <rect x="105" y="190" width="230" height="80" rx="10" fill="#161b22" stroke="#30363d" stroke-width="1" filter="url(#shadow)"/>
  <text x="220" y="224" text-anchor="middle" fill="#e6edf3" font-size="14" font-weight="600">Web Dashboard</text>
  <text x="220" y="244" text-anchor="middle" fill="#8b949e" font-size="11">Agent &amp; secret management</text>

  <!-- Rust Gateway (highlighted) -->
  <rect x="365" y="190" width="230" height="80" rx="10" fill="#161b22" stroke="#19BA5D" stroke-width="1.5" stroke-opacity="0.4" filter="url(#shadow)"/>
  <text x="480" y="224" text-anchor="middle" fill="#e6edf3" font-size="14" font-weight="600">Rust Gateway</text>
  <text x="480" y="244" text-anchor="middle" fill="#8b949e" font-size="11">Credential injection</text>

  <!-- Secret Store -->
  <rect x="625" y="190" width="230" height="80" rx="10" fill="#161b22" stroke="#30363d" stroke-width="1" filter="url(#shadow)"/>
  <text x="740" y="224" text-anchor="middle" fill="#e6edf3" font-size="14" font-weight="600">Secret Store</text>
  <text x="740" y="244" text-anchor="middle" fill="#8b949e" font-size="11">AES-256-GCM · PostgreSQL</text>

  <!-- Dashed connections between components -->
  <line x1="335" y1="230" x2="365" y2="230" stroke="#8b949e" stroke-width="1" stroke-dasharray="4 3" stroke-opacity="0.4"/>
  <line x1="595" y1="230" x2="625" y2="230" stroke="#8b949e" stroke-width="1" stroke-dasharray="4 3" stroke-opacity="0.4"/>

  <!-- Arrows: gateway → APIs -->
  <line x1="180" y1="294" x2="180" y2="350" stroke="#19BA5D" stroke-width="1.5" stroke-opacity="0.4" marker-end="url(#arrowhead)"/>
  <line x1="380" y1="294" x2="380" y2="350" stroke="#19BA5D" stroke-width="1.5" stroke-opacity="0.4" marker-end="url(#arrowhead)"/>
  <line x1="580" y1="294" x2="580" y2="350" stroke="#19BA5D" stroke-width="1.5" stroke-opacity="0.4" marker-end="url(#arrowhead)"/>
  <line x1="780" y1="294" x2="780" y2="350" stroke="#19BA5D" stroke-width="1.5" stroke-opacity="0.4" marker-end="url(#arrowhead)"/>

  <!-- ===== ROW 3: EXTERNAL APIs ===== -->
  <text x="480" y="370" text-anchor="middle" fill="#8b949e" font-size="11" font-weight="500" letter-spacing="0.5">External APIs</text>

  <rect x="95" y="380" width="170" height="50" rx="10" fill="#161b22" stroke="#30363d" stroke-width="1"/>
  <text x="180" y="410" text-anchor="middle" fill="#e6edf3" font-size="13" font-weight="500">Anthropic</text>

  <rect x="295" y="380" width="170" height="50" rx="10" fill="#161b22" stroke="#30363d" stroke-width="1"/>
  <text x="380" y="410" text-anchor="middle" fill="#e6edf3" font-size="13" font-weight="500">OpenAI</text>

  <rect x="495" y="380" width="170" height="50" rx="10" fill="#161b22" stroke="#30363d" stroke-width="1"/>
  <text x="580" y="410" text-anchor="middle" fill="#e6edf3" font-size="13" font-weight="500">GitHub</text>

  <rect x="695" y="380" width="170" height="50" rx="10" fill="#161b22" stroke="#30363d" stroke-width="1"/>
  <text x="780" y="410" text-anchor="middle" fill="#e6edf3" font-size="13" font-weight="500">Any API</text>
</svg>
